<svg xmlns="http://www.w3.org/2000/svg" width="130" height="32" viewBox="0 0 130 32" fill="none"><path d="M43.0881 23.2296C42.5302 24.0483 41.7323 24.6775 40.6937 25.1171C39.6548 25.5566 38.3945 25.7765 36.9132 25.7765C36.134 25.7765 35.3511 25.7118 34.5645 25.5833C33.7777 25.4543 33.0559 25.2764 32.3993 25.0489C31.7424 24.8214 31.1999 24.5712 30.7725 24.2985L31.1619 20.6144C31.8953 21.0845 32.7659 21.4559 33.774 21.7288C34.7822 22.0017 35.7595 22.1381 36.7069 22.1381C37.5621 22.1381 38.2153 21.9981 38.666 21.7174C39.1163 21.4371 39.3418 21.0317 39.3418 20.5008C39.3418 20.1824 39.2576 19.9134 39.0897 19.6935C38.9216 19.4738 38.62 19.2654 38.1847 19.0682C37.7495 18.8713 37.1421 18.6665 36.3632 18.4542C35.1258 18.1056 34.1138 17.6924 33.3272 17.2147C32.5404 16.7373 31.9675 16.1613 31.6088 15.4865C31.2498 14.8121 31.0703 14.0124 31.0703 13.0873C31.0703 11.981 31.3375 11.0295 31.8722 10.2335C32.4069 9.43766 33.1704 8.82756 34.1635 8.40291C35.1564 7.97872 36.3324 7.76616 37.6921 7.76616C38.685 7.76616 39.6742 7.88759 40.6594 8.12999C41.6447 8.37261 42.4655 8.69855 43.1226 9.10782L42.5268 12.6554C41.9155 12.2766 41.1824 11.9732 40.3271 11.7457C39.4713 11.5184 38.6621 11.4046 37.8984 11.4046C37.1192 11.4046 36.5272 11.5336 36.1227 11.7911C35.7177 12.0491 35.5155 12.4279 35.5155 12.9283C35.5155 13.2317 35.5916 13.4854 35.7445 13.6901C35.8972 13.8946 36.1645 14.0806 36.5466 14.2472C36.9282 14.4141 37.4477 14.6035 38.1045 14.8158C39.4945 15.1947 40.6134 15.6343 41.4613 16.1347C42.3091 16.6349 42.9313 17.2225 43.3286 17.8971C43.7257 18.5717 43.9244 19.3639 43.9244 20.2733C43.9244 21.4256 43.6455 22.411 43.0881 23.2296Z" fill="#141414"></path><path d="M46.7312 20.3757C46.2649 19.2767 46.0322 18.0755 46.0322 16.7715C46.0322 15.498 46.2688 14.3154 46.7425 13.2239C47.2159 12.1322 47.8804 11.1771 48.7359 10.3586C49.5912 9.53981 50.5919 8.90331 51.7374 8.44836C52.8832 7.99364 54.1279 7.76616 55.4724 7.76616C56.8471 7.76616 58.1108 7.98996 59.2644 8.43711C60.4176 8.88425 61.4142 9.50974 62.2544 10.3131C63.0944 11.1167 63.7473 12.068 64.2136 13.167C64.6794 14.2663 64.9123 15.4677 64.9123 16.7715C64.9123 18.0447 64.6754 19.2273 64.202 20.3188C63.7283 21.4105 63.06 22.3656 62.1973 23.1841C61.3339 24.0029 60.3334 24.6396 59.1957 25.0943C58.0576 25.549 56.8163 25.7765 55.4724 25.7765C54.0976 25.7765 52.8335 25.5527 51.6803 25.1058C50.5267 24.6587 49.5301 24.0334 48.6901 23.2296C47.8499 22.4262 47.197 21.475 46.7312 20.3757ZM59.7799 18.7726C60.0089 18.1664 60.1236 17.5069 60.1236 16.7942C60.1236 16.0514 60.0126 15.3768 59.7913 14.7701C59.5697 14.1641 59.2489 13.641 58.8289 13.2012C58.4087 12.7616 57.9161 12.4166 57.351 12.1664C56.7858 11.9162 56.1597 11.7911 55.4724 11.7911C54.8 11.7911 54.1777 11.9162 53.605 12.1664C53.0321 12.4166 52.5395 12.7616 52.1271 13.2012C51.7145 13.641 51.3937 14.1641 51.1648 14.7701C50.9356 15.3768 50.8211 16.0362 50.8211 16.7487C50.8211 17.4764 50.9316 18.1471 51.1532 18.7611C51.3745 19.3751 51.6953 19.9022 52.1156 20.3415C52.5356 20.7815 53.0321 21.1261 53.605 21.3762C54.1777 21.6264 54.8 21.7515 55.4724 21.7515C56.1442 21.7515 56.7668 21.6264 57.3397 21.3762C57.9126 21.1261 58.4052 20.7815 58.8176 20.3415C59.23 19.9022 59.5507 19.379 59.7799 18.7726Z" fill="#141414"></path><path d="M83.8149 17.9311C83.8149 20.4478 83.1236 22.3846 81.7413 23.7412C80.3587 25.0982 78.3766 25.7765 75.7953 25.7765C73.2293 25.7765 71.2548 25.0943 69.8725 23.73C68.4899 22.3656 67.7988 20.4326 67.7988 17.9311V8.12999H72.4272V17.6127C72.4272 18.9925 72.7098 20.0273 73.2751 20.7168C73.8401 21.4068 74.6803 21.7516 75.7953 21.7516C76.9256 21.7516 77.7695 21.4068 78.3274 20.7168C78.8848 20.0273 79.1637 18.9925 79.1637 17.6127V8.12999H83.8149V17.9311Z" fill="#141414"></path><path d="M87.3662 8.12999H91.9946V25.1852L89.6344 21.7061H99.3724V25.4127H87.3662V8.12999Z" fill="#141414"></path><path d="M113.521 23.2296C112.963 24.0483 112.165 24.6775 111.126 25.1171C110.087 25.5566 108.827 25.7765 107.346 25.7765C106.567 25.7765 105.784 25.7118 104.997 25.5833C104.21 25.4543 103.489 25.2764 102.832 25.0489C102.175 24.8214 101.632 24.5712 101.205 24.2985L101.595 20.6144C102.328 21.0845 103.198 21.4559 104.207 21.7288C105.215 22.0017 106.192 22.1381 107.139 22.1381C107.995 22.1381 108.648 21.9981 109.099 21.7174C109.549 21.4371 109.774 21.0317 109.774 20.5008C109.774 20.1824 109.69 19.9134 109.522 19.6935C109.354 19.4738 109.053 19.2654 108.617 19.0682C108.182 18.8713 107.575 18.6665 106.796 18.4542C105.558 18.1056 104.546 17.6924 103.76 17.2147C102.973 16.7373 102.4 16.1613 102.041 15.4865C101.682 14.8121 101.503 14.0124 101.503 13.0873C101.503 11.981 101.77 11.0295 102.305 10.2335C102.84 9.43766 103.603 8.82756 104.596 8.40291C105.589 7.97872 106.765 7.76616 108.125 7.76616C109.118 7.76616 110.107 7.88759 111.092 8.12999C112.077 8.37261 112.898 8.69855 113.555 9.10782L112.959 12.6554C112.348 12.2766 111.615 11.9732 110.76 11.7457C109.904 11.5184 109.095 11.4046 108.331 11.4046C107.552 11.4046 106.96 11.5336 106.555 11.7911C106.15 12.0491 105.948 12.4279 105.948 12.9283C105.948 13.2317 106.024 13.4854 106.177 13.6901C106.33 13.8946 106.597 14.0806 106.979 14.2472C107.361 14.4141 107.88 14.6035 108.537 14.8158C109.927 15.1947 111.046 15.6343 111.894 16.1347C112.742 16.6349 113.364 17.2225 113.761 17.8971C114.158 18.5717 114.357 19.3639 114.357 20.2733C114.357 21.4256 114.078 22.411 113.521 23.2296Z" fill="#141414"></path><path d="M128.735 23.2296C128.177 24.0483 127.379 24.6775 126.34 25.1171C125.301 25.5566 124.041 25.7765 122.56 25.7765C121.78 25.7765 120.998 25.7118 120.211 25.5833C119.424 25.4543 118.702 25.2764 118.046 25.0489C117.389 24.8214 116.846 24.5712 116.419 24.2985L116.808 20.6144C117.542 21.0845 118.412 21.4559 119.42 21.7288C120.429 22.0017 121.406 22.1381 122.353 22.1381C123.209 22.1381 123.862 21.9981 124.313 21.7174C124.763 21.4371 124.988 21.0317 124.988 20.5008C124.988 20.1824 124.904 19.9134 124.736 19.6935C124.568 19.4738 124.266 19.2654 123.831 19.0682C123.396 18.8713 122.789 18.6665 122.01 18.4542C120.772 18.1056 119.76 17.6924 118.974 17.2147C118.187 16.7373 117.614 16.1613 117.255 15.4865C116.896 14.8121 116.717 14.0124 116.717 13.0873C116.717 11.981 116.984 11.0295 117.519 10.2335C118.053 9.43766 118.817 8.82756 119.81 8.40291C120.803 7.97872 121.979 7.76616 123.339 7.76616C124.331 7.76616 125.321 7.88759 126.306 8.12999C127.291 8.37261 128.112 8.69855 128.769 9.10782L128.173 12.6554C127.562 12.2766 126.829 11.9732 125.974 11.7457C125.118 11.5184 124.309 11.4046 123.545 11.4046C122.766 11.4046 122.174 11.5336 121.769 11.7911C121.364 12.0491 121.162 12.4279 121.162 12.9283C121.162 13.2317 121.238 13.4854 121.391 13.6901C121.544 13.8946 121.811 14.0806 122.193 14.2472C122.575 14.4141 123.094 14.6035 123.751 14.8158C125.141 15.1947 126.26 15.6343 127.108 16.1347C127.956 16.6349 128.578 17.2225 128.975 17.8971C129.372 18.5717 129.571 19.3639 129.571 20.2733C129.571 21.4256 129.292 22.411 128.735 23.2296Z" fill="#141414"></path><path d="M23.2553 20.3186L11.8431 28.5825L0.430918 20.3186L0.428711 23.734L11.8431 32L23.2487 23.7427L23.2553 20.3186Z" fill="#7B5AED"></path><path d="M23.2553 14.3009L11.8431 22.5648L0.430918 14.3009L0.428711 17.7163L11.8431 25.9823L23.2487 17.725L23.2553 14.3009Z" fill="#1182F6"></path><path d="M11.8426 16.55L0.430918 8.27611L0.428711 11.6956L11.8426 19.9717" fill="#7B5AED"></path><path d="M23.254 8.27611L11.8071 0L0.430664 8.27611L11.8423 16.55L23.254 8.27611Z" fill="#7B5AED"></path></svg>